<svg width="70" height="34" viewBox="0 0 70 34" fill="none" xmlns="http://www.w3.org/2000/svg">
<path d="M12.6045 13H10.0312V3.00586H6.73584V0.864258H15.8999V3.00586H12.6045V13ZM28.7827 6.91553C28.7827 8.92432 28.2847 10.4683 27.2886 11.5474C26.2925 12.6265 24.8647 13.166 23.0054 13.166C21.146 13.166 19.7183 12.6265 18.7222 11.5474C17.7261 10.4683 17.228 8.91878 17.228 6.89893C17.228 4.87907 17.7261 3.33789 18.7222 2.27539C19.7238 1.20736 21.1571 0.67334 23.022 0.67334C24.8869 0.67334 26.3118 1.21012 27.2969 2.28369C28.2874 3.35726 28.7827 4.9012 28.7827 6.91553ZM19.9258 6.91553C19.9258 8.27132 20.1831 9.29232 20.6978 9.97852C21.2124 10.6647 21.9816 11.0078 23.0054 11.0078C25.0584 11.0078 26.085 9.64372 26.085 6.91553C26.085 4.1818 25.064 2.81494 23.022 2.81494C21.9982 2.81494 21.2262 3.16081 20.7061 3.85254C20.1859 4.53874 19.9258 5.55973 19.9258 6.91553ZM31.2979 0.864258H35.0747C36.7957 0.864258 38.0436 1.11051 38.8184 1.60303C39.5986 2.09001 39.9888 2.86751 39.9888 3.93555C39.9888 4.66048 39.8172 5.25537 39.4741 5.72021C39.1366 6.18506 38.6855 6.46452 38.1211 6.55859V6.6416C38.8903 6.81315 39.4437 7.13411 39.7812 7.60449C40.1243 8.07487 40.2959 8.7002 40.2959 9.48047C40.2959 10.5872 39.8947 11.4505 39.0923 12.0703C38.2954 12.6901 37.2108 13 35.8384 13H31.2979V0.864258ZM33.8711 5.67041H35.3652C36.0625 5.67041 36.5661 5.5625 36.876 5.34668C37.1914 5.13086 37.3491 4.77393 37.3491 4.27588C37.3491 3.81104 37.1776 3.479 36.8345 3.27979C36.4969 3.07503 35.9601 2.97266 35.2241 2.97266H33.8711V5.67041ZM33.8711 7.7124V10.875H35.5479C36.2562 10.875 36.7791 10.7394 37.1167 10.4683C37.4543 10.1971 37.623 9.78206 37.623 9.22314C37.623 8.21598 36.9036 7.7124 35.4648 7.7124H33.8711ZM50.1489 13L49.269 10.1113H44.8447L43.9648 13H41.1924L45.4756 0.814453H48.6216L52.9214 13H50.1489ZM48.6548 7.95312C47.8413 5.33561 47.382 3.85531 47.2769 3.51221C47.1772 3.16911 47.1053 2.89795 47.061 2.69873C46.8784 3.40706 46.3555 5.15853 45.4922 7.95312H48.6548ZM57.0303 6.5752H57.877C58.6683 6.5752 59.2604 6.42025 59.6533 6.11035C60.0462 5.79492 60.2427 5.33838 60.2427 4.74072C60.2427 4.13753 60.0767 3.69206 59.7446 3.4043C59.4181 3.11654 58.9035 2.97266 58.2007 2.97266H57.0303V6.5752ZM62.8408 4.64941C62.8408 5.9554 62.4313 6.95426 61.6123 7.646C60.7988 8.33773 59.6395 8.68359 58.1343 8.68359H57.0303V13H54.457V0.864258H58.3335C59.8055 0.864258 60.9233 1.18245 61.687 1.81885C62.4562 2.44971 62.8408 3.39323 62.8408 4.64941ZM10.604 30H8.03906V24.7622H3.23291V30H0.659668V17.8643H3.23291V22.6206H8.03906V17.8643H10.604V30ZM20.6646 30H13.6753V17.8643H20.6646V19.9727H16.2485V22.6372H20.3574V24.7456H16.2485V27.875H20.6646V30ZM21.7603 27.8584H22.6982C23.5007 26.2536 24.1343 24.6515 24.5991 23.0522C25.064 21.4474 25.4098 19.7181 25.6367 17.8643H32.709V27.8584H34.3276V33.5361H31.8457V30H24.2422V33.5361H21.7603V27.8584ZM27.6787 20.0059C27.5016 21.2731 27.2056 22.6151 26.7905 24.0317C26.381 25.4484 25.9189 26.724 25.4043 27.8584H30.144V20.0059H27.6787ZM43.1929 30H36.2036V17.8643H43.1929V19.9727H38.7769V22.6372H42.8857V24.7456H38.7769V27.875H43.1929V30ZM55.3369 30H52.772V20.0059H49.8003L49.6675 21.1182C49.3244 23.946 49.02 25.9326 48.7544 27.0781C48.4943 28.2181 48.1125 29.0205 47.6089 29.4854C47.1053 29.9502 46.4246 30.1771 45.5669 30.166C45.1021 30.166 44.6925 30.1051 44.3384 29.9834V27.875C44.6593 27.9857 44.9609 28.041 45.2432 28.041C45.5365 28.041 45.7689 27.9082 45.9404 27.6426C46.112 27.3714 46.2725 26.8734 46.4219 26.1484C46.5768 25.418 46.7788 24.2254 47.0278 22.5708C47.2824 20.9106 47.4982 19.3418 47.6753 17.8643H55.3369V30ZM58.3999 17.8643H60.7158V23.7246L60.6826 25.2935L60.5996 27.0781H60.6494L66.2524 17.8643H69.332V30H67.041V24.1729C67.041 23.3926 67.0908 22.236 67.1904 20.7031H67.124L61.4961 30H58.3999V17.8643Z" fill="#63D1BB"/>
</svg>
